<?xml version="1.0" encoding="UTF-8" standalone="no"?>
<svg
   width="128"
   height="128"
   version="1.1"
   id="svg36"
   xmlns="http://www.w3.org/2000/svg"
   xmlns:svg="http://www.w3.org/2000/svg">
  <defs
     id="defs40" />
  <g
     stroke="black"
     stroke-width="8"
     stroke-linecap="round"
     stroke-linejoin="miter"
     fill="none"
     transform="scale(0.92,0.92) translate(5,8)"
     id="g34">
    <path
       d="M36,45 L63,29 91,45 91,78 63,94 36,78 Z"
       fill="yellow"
       id="path2" />
    <line
       x1="50"
       y1="53"
       x2="62"
       y2="45"
       id="line4" />
    <line
       x1="78"
       y1="54"
       x2="78"
       y2="69"
       id="line6" />
    <line
       x1="50"
       y1="70"
       x2="62"
       y2="77"
       id="line8" />
    <line
       x1="36"
       y1="45"
       x2="14"
       y2="31"
       id="line10" />
    <line
       x1="63"
       y1="29"
       x2="63"
       y2="3"
       id="line12" />
    <line
       x1="91"
       y1="45"
       x2="114"
       y2="32"
       id="line14" />
    <line
       x1="91"
       y1="78"
       x2="114"
       y2="91"
       id="line16" />
    <line
       x1="63"
       y1="94"
       x2="63"
       y2="120"
       id="line18" />
    <line
       x1="36"
       y1="78"
       x2="14"
       y2="91"
       id="line20" />
    <circle
       cx="14"
       cy="31"
       r="9"
       fill="violet"
       stroke-width="2"
       id="circle22" />
    <circle
       cx="63"
       cy="3"
       r="9"
       fill="#00aaff"
       stroke-width="2"
       id="circle24" />
    <circle
       cx="114"
       cy="32"
       r="9"
       fill="#44ff44"
       stroke-width="2"
       id="circle26" />
    <circle
       cx="114"
       cy="91"
       r="9"
       fill="yellow"
       stroke-width="2"
       id="circle28" />
    <circle
       cx="63"
       cy="120"
       r="9"
       fill="orange"
       stroke-width="2"
       id="circle30" />
    <circle
       cx="14"
       cy="91"
       r="9"
       fill="red"
       stroke-width="2"
       id="circle32" />
  </g>
</svg>
